<svg xmlns="http://www.w3.org/2000/svg" xmlns:xlink="http://www.w3.org/1999/xlink" width="1506.5" height="991.48" viewBox="0 0 1506.5 991.48">
  <defs>
    <filter id="Path_35" x="407.608" y="0" width="1098.892" height="987.48" filterUnits="userSpaceOnUse">
      <feOffset dx="-16" input="SourceAlpha"/>
      <feGaussianBlur stdDeviation="27.5" result="blur"/>
      <feFlood flood-color="#f2ac20" flood-opacity="0.6"/>
      <feComposite operator="in" in2="blur"/>
      <feComposite in="SourceGraphic"/>
    </filter>
    <filter id="Path_36" x="676.427" y="286.86" width="830.073" height="704.62" filterUnits="userSpaceOnUse">
      <feOffset dx="-16" input="SourceAlpha"/>
      <feGaussianBlur stdDeviation="27.5" result="blur-2"/>
      <feFlood flood-color="#f2ac20" flood-opacity="0.6"/>
      <feComposite operator="in" in2="blur-2"/>
      <feComposite in="SourceGraphic"/>
    </filter>
  </defs>
  <g id="Group_58" data-name="Group 58" transform="translate(3 8.48)">
    <rect id="Rectangle_26" data-name="Rectangle 26" width="1440" height="900" transform="translate(-3 0.5)" fill="#f2ac20"/>
    <path id="Path_34" data-name="Path 34" d="M1437,.5v900H191.945a759.555,759.555,0,0,0,67.439-51.75c112.263-96.131,99.557-135.427,182.94-194.625,163.347-115.965,277.27-11.441,369.88-117,80.914-92.228,20.7-202.5,102.966-329.625,65.949-101.914,175.284-140.175,259.916-156.375A1040.451,1040.451,0,0,1,1274.373.5Z" fill="#f9c449"/>
    <g transform="matrix(1, 0, 0, 1, -3, -8.48)" filter="url(#Path_35)">
      <path id="Path_35-2" data-name="Path 35" d="M1440,74.02V896.5H506.108q9.319-7.582,18.99-15.938c112.534-97.277,99.8-137.042,183.381-196.945C872.22,566.269,986.417,672.039,1079.25,565.222,1160.359,471.9,1100,360.308,1182.465,231.667,1247.79,129.757,1355.595,90.743,1440,74.02Z" transform="translate(0 8.48)" fill="#f9ce69"/>
    </g>
    <g transform="matrix(1, 0, 0, 1, -3, -8.48)" filter="url(#Path_36)">
      <path id="Path_36-2" data-name="Path 36" d="M1440,260.88V800.5H774.927c11.865-11.28,26.175-22.65,45.785-35,163.741-103.08,277.938-10.17,370.771-104,81.109-81.98,20.753-180,103.215-293C1332.967,316.05,1385.817,282.57,1440,260.88Z" transform="translate(0 108.48)" fill="#fcdc73"/>
    </g>
  </g>
</svg>
