<svg xmlns="http://www.w3.org/2000/svg" width="74.486" height="50.915" viewBox="0 0 74.486 50.915">
  <g id="Layer_1-2" data-name="Layer 1-2" transform="translate(-1587.233 -166.79)">
    <g id="Group_33" data-name="Group 33">
      <path id="Path_26" data-name="Path 26" d="M1649.766,204.568,1624.543,217.7l-25.221-13.137,9.712-1.659h0l15.508,8.076,15.508-8.076h0Z"/>
      <path id="Path_27" data-name="Path 27" d="M1624.475,185.1l-10.762,1.84,10.762,5.6,10.762-5.6-10.762-1.84Zm19.48,3.328-12.176,6.341-7.238,3.769-7.237-3.769-12.21-6.359-10.3,1.758,12.21,6.361,9.715,5.059,7.749,4.038,7.783-4.054,9.716-5.061,12.176-6.341-10.194-1.742Z"/>
      <path id="Path_28" data-name="Path 28" d="M1661.719,173.151l-12.436,6.477-14.045,7.315-10.764,5.607-10.762-5.607-14.011-7.3-12.469-6.494,37.242-6.361Z"/>
    </g>
  </g>
</svg>
